<svg width="602" height="216" xmlns="http://www.w3.org/2000/svg" xmlns:xlink="http://www.w3.org/1999/xlink" xml:space="preserve" overflow="hidden"><defs><clipPath id="clip0"><rect x="0" y="0" width="602" height="216"/></clipPath></defs><g clip-path="url(#clip0)"><path d="M129.196 215.916C122.99 215.428 119.225 214.773 114.024 213.267 101.823 209.753 90.0535 203.115 79.2047 193.633 76.862 191.597 71.1029 185.782 68.4535 182.812 67.1845 181.39 64.4374 178.252 62.3318 175.84 60.2262 173.428 57.6744 170.485 56.6425 169.328 55.6245 168.156 54.8158 167.194 54.8436 167.194 54.8715 167.194 58.9433 170.276 63.8797 174.027 72.9017 180.902 76.0811 183.175 78.7863 184.695 84.4338 187.874 94.4739 191.332 101.348 192.49 110.343 194.01 119.421 192.42 124.956 188.362 128.735 185.601 132.654 180.205 134.132 175.77 135.066 172.953 135.945 168.212 136.475 163.15 136.781 160.222 136.823 150.907 136.544 148.23 134.787 131.455 133.072 123.241 128.917 111.556 126.281 104.193 124.12 99.0198 121.289 93.3583 118.807 88.3941 116.952 85.2566 112.881 79.0652 101.809 62.2482 90.4578 49.1543 75.9974 36.5206 73.5014 34.3453 67.2961 29.0742 65.051 27.2475 57.9951 21.4745 50.7858 17.082 45.3893 15.2692 41.9311 14.1118 36.0047 12.8986 32.1002 12.55 29.7017 12.3269 23.6638 12.4385 21.4884 12.7592 19.6617 13.0102 11.1556 14.6556 9.85875 15.0043 9.38463 15.1298 8.35274 15.5481 7.55791 15.9246 5.74513 16.7892 4.82479 17.6677 2.32873 20.9446 1.33867 22.2414 0.515946 23.2873 0.488057 23.2873 0.292834 23.2873 4.90846 13.9166 5.82879 12.4385 7.93441 9.04997 9.94241 7.22324 14.0142 4.97818 17.0959 3.27695 21.851 1.43628 24.7236 0.836669 27.9308 0.181278 33.9269-0.1255 38.6262 0.1255 48.1085 0.655391 54.1325 2.16139 63.1964 6.28896 87.2646 17.2493 111.807 39.7697 131.943 69.3738 139.054 79.8322 148.997 97.4301 154.296 108.906 161.728 124.998 166.483 141.592 168.854 159.734 169.913 167.78 169.788 173.316 168.38 180.121 166.943 187.037 164.74 192.294 160.32 199.406 156.792 205.081 154.77 207.327 150.81 210.004 145.497 213.588 141.829 215.066 136.795 215.665 135.052 215.861 130.506 216.014 129.196 215.916Z" fill="#FFFFFF" transform="matrix(1.00196 0 0 -1 0.0485797 216)"/><path d="M78.0194 173.302C77.6847 172.382 67.4913 140.491 67.4913 140.365 67.4913 140.24 70.7822 140.086 80.4318 139.738 87.5434 139.487 93.7348 139.277 94.181 139.264L95.0037 139.236 98.964 151.088C101.139 157.614 103.691 165.312 104.639 168.212L106.368 173.469 92.2288 173.469C81.0314 173.469 78.0612 173.428 78.0194 173.302Z" fill="#FFFFFF" transform="matrix(1.00196 0 0 -1 0.0485797 216)"/><path d="M509.113 160.487C503.465 159.999 499.059 158.103 496.047 154.867 493.663 152.316 491.905 148.704 491.32 145.176 491.041 143.419 491.111 139.71 491.473 138.05 492.338 134.132 494.388 130.576 497.246 128.108 499.031 126.574 501.987 124.956 505.348 123.701 506.394 123.325 509.782 122.251 512.878 121.317 519.139 119.448 519.488 119.323 520.924 118.444 523.406 116.911 524.577 114.442 524.187 111.57 523.908 109.478 523.099 107.986 521.342 106.285 520.129 105.127 518.428 104.221 516.643 103.817 515.276 103.496 511.86 103.384 510.354 103.607 507.454 104.026 504.958 105.476 503.242 107.721 502.113 109.213 500.872 112.267 500.384 114.805 500.161 115.962 500.133 116.018 499.784 116.018 499.352 116.018 488.991 114.875 488.921 114.833 488.824 114.749 489.312 111.64 489.66 110.092 491.32 102.687 495.113 97.3046 500.607 94.5436 504.107 92.7866 507.495 92.1172 512.739 92.1172 517.173 92.1172 519.794 92.4798 523.071 93.5675 525.846 94.4878 527.701 95.5894 529.723 97.5277 532.651 100.331 534.604 104.068 535.496 108.544 535.747 109.813 535.803 110.566 535.803 112.671 535.803 116.743 535.273 119.434 533.934 122.251 533.042 124.148 532.052 125.57 530.518 127.16 527.617 130.172 523.476 132.124 514.482 134.704 508.123 136.53 505.236 137.716 503.884 139.068 501.75 141.216 501.611 144.548 503.549 146.752 504.651 147.993 506.784 148.997 509.28 149.429 510.856 149.708 514.258 149.624 515.667 149.276 519.32 148.383 521.607 145.552 522.388 140.965L522.555 139.989 523.476 140.072C523.978 140.114 526.585 140.24 529.263 140.365 531.954 140.491 534.157 140.602 534.157 140.616 534.241 140.7 533.864 143.977 533.641 145.092 532.052 153.013 526.962 158.256 519.292 159.873 516.406 160.487 512.041 160.752 509.113 160.487Z" fill="#FFFFFF" transform="matrix(1.00196 0 0 -1 0.0485797 216)"/><path d="M209.446 126.476 209.446 93.2886 215.233 93.2886 221.02 93.2886 221.02 105.839 221.02 118.389 226.152 118.389C235.815 118.389 240.263 118.877 243.261 120.257 246.887 121.931 249.76 124.887 251.572 128.833 253.12 132.166 253.803 136.572 253.511 141.188 253.204 146.096 252.284 148.997 249.969 152.413 247.682 155.788 244.628 158.019 241.17 158.828 238.451 159.469 233.528 159.664 219.528 159.664L209.446 159.664 209.446 126.476ZM234.686 148.174C237.028 147.728 238.813 146.515 240.152 144.479 240.933 143.28 241.337 142.094 241.546 140.365 241.965 137.06 240.612 133.309 238.423 131.692 236.038 129.935 233.709 129.544 225.803 129.544L221.02 129.544 221.02 139.04 221.02 148.537 227.267 148.467C232.176 148.411 233.751 148.341 234.686 148.174Z" fill="#FFFFFF" transform="matrix(1.00196 0 0 -1 0.0485797 216)"/><path d="M263.272 126.476 263.272 93.2886 285.165 93.2886 307.057 93.2886 307.057 98.8664 307.057 104.444 290.952 104.444 274.846 104.444 274.846 113.508 274.846 122.572 289.348 122.572 303.85 122.572 303.85 128.15 303.85 133.728 289.348 133.728 274.846 133.728 274.846 141.118 274.846 148.509 290.394 148.509 305.942 148.509 305.942 154.087 305.942 159.664 284.607 159.664 263.272 159.664 263.272 126.476Z" fill="#FFFFFF" transform="matrix(1.00196 0 0 -1 0.0485797 216)"/><path d="M317.097 126.49 317.097 93.2886 322.884 93.2886 328.671 93.2886 328.671 107.177 328.671 121.066 331.572 120.996C335.811 120.899 336.996 120.62 338.725 119.281 340.929 117.594 342.909 114.554 350.522 101.209L355.04 93.2886 361.999 93.2886 368.957 93.2886 368.622 93.8882C368.441 94.2089 366.573 97.6532 364.467 101.53 359.196 111.207 357.369 114.317 355.626 116.632 354.622 117.942 352.182 120.299 350.578 121.484 349.323 122.419 349.184 122.572 349.463 122.628 354.204 123.646 356.951 125.04 359.572 127.745 361.748 130.004 363.212 133.1 363.895 136.865 364.286 138.999 364.258 143.307 363.839 145.413 363.003 149.582 361.274 152.929 358.638 155.425 356.156 157.754 353.311 158.8 347.775 159.399 346.813 159.511 341.305 159.581 331.711 159.622L317.097 159.678 317.097 126.49ZM344.847 148.369C347.413 148.174 348.64 147.756 349.811 146.668 351.359 145.232 352.098 143.419 352.196 140.7 352.279 138.538 352.056 137.325 351.248 135.694 350.16 133.477 348.612 132.417 345.823 131.971 344.61 131.775 342.992 131.72 336.522 131.678L328.671 131.608 328.671 140.058 328.671 148.509 335.895 148.509C339.855 148.509 343.885 148.439 344.847 148.369Z" fill="#FFFFFF" transform="matrix(1.00196 0 0 -1 0.0485797 216)"/><path d="M375.385 126.476 375.385 93.2886 381.172 93.2886 386.959 93.2886 386.959 103.301 386.973 113.299 391.673 118.821C394.252 121.861 396.428 124.371 396.497 124.399 396.553 124.427 400.179 117.454 404.529 108.906L412.464 93.3583 419.952 93.3165C426.603 93.2886 427.426 93.3165 427.343 93.4977 427.273 93.7069 405.338 132.612 404.794 133.546L404.515 133.979 414.304 145.469C419.687 151.772 424.623 157.559 425.265 158.312L426.436 159.664 418.571 159.664 410.693 159.664 398.91 144.967C392.426 136.879 387.085 130.297 387.043 130.339 387.001 130.395 386.959 137.005 386.959 145.05L386.959 159.664 381.172 159.664 375.385 159.664 375.385 126.476Z" fill="#FFFFFF" transform="matrix(1.00196 0 0 -1 0.0485797 216)"/><path d="M449.347 157.684C448.984 156.583 443.992 141.676 438.261 124.538 432.516 107.4 427.817 93.3583 427.817 93.3304 427.817 93.3025 430.62 93.3025 434.036 93.3165L440.255 93.3583 442.124 99.2847C443.156 102.548 444.215 105.922 444.48 106.787L444.982 108.349 456.584 108.321 468.172 108.279 470.626 100.819 473.094 93.3583 479.328 93.3165C484.306 93.2886 485.561 93.3165 485.519 93.4559 485.477 93.5535 480.276 108.488 473.959 126.658L462.483 159.664 456.249 159.664 450.016 159.664 449.347 157.684ZM464.491 119.546C464.491 119.518 460.921 119.504 456.542 119.504 451.132 119.504 448.594 119.546 448.594 119.644 448.594 119.769 455.273 141.09 456.082 143.558L456.319 144.256 460.405 131.915C462.65 125.124 464.491 119.56 464.491 119.546Z" fill="#FFFFFF" transform="matrix(1.00196 0 0 -1 0.0485797 216)"/><path d="M557.974 147.086C555.66 140.156 550.654 125.221 546.861 113.899L539.944 93.2886 546.177 93.2886 552.411 93.2886 554.781 100.819 557.138 108.349 568.726 108.349 580.313 108.349 582.796 100.819 585.278 93.2886 591.469 93.2886C594.872 93.2886 597.66 93.3444 597.66 93.4001 597.66 93.5117 575.405 157.573 574.847 159.079L574.624 159.664 568.405 159.664 562.172 159.664 557.974 147.086ZM572.56 131.929C574.778 125.194 576.604 119.644 576.604 119.588 576.604 119.546 573.021 119.504 568.642 119.504 562.339 119.504 560.694 119.546 560.735 119.685 560.763 119.769 562.52 125.333 564.626 132.026 566.718 138.706 568.461 144.186 568.475 144.186 568.489 144.186 570.329 138.678 572.56 131.929Z" fill="#FFFFFF" transform="matrix(1.00196 0 0 -1 0.0485797 216)"/><path d="M16.2732 125.556C12.9963 116.534 10.3329 109.116 10.3886 109.074 10.4584 109.004 28.5583 108.223 30.5802 108.209 31.5145 108.209 31.654 108.181 31.654 107.972 31.64 107.833 25.7833 89.6212 18.6298 67.4913 11.4763 45.3614 5.64751 27.2336 5.66146 27.2057 5.71724 27.136 30.148 25.9228 30.2177 25.9925 30.3432 26.1041 67.2403 140.017 67.1845 140.086 67.1287 140.128 23.7196 141.955 22.6458 141.955L22.2414 141.955 16.2732 125.556Z" fill="#FFFFFF" transform="matrix(1.00196 0 0 -1 0.0485797 216)"/><path d="M343.174 82.621C343.062 82.5932 342.49 82.4955 341.919 82.4119 339.604 82.0354 336.885 80.878 335.002 79.4557 333.078 78.0054 331.098 75.7325 329.675 73.3759 326.608 68.314 325.143 59.3895 326.496 54.0906 327.695 49.3495 330.707 46.2957 335.337 45.1522 336.355 44.9012 336.968 44.8455 339.06 44.8315 341.793 44.8315 342.714 44.957 344.777 45.6263 349.951 47.2997 354.273 51.748 356.477 57.6325 358.052 61.8438 358.819 67.2682 358.373 70.9774 357.927 74.6169 356.309 78.0054 354.162 79.7764 351.736 81.7844 349.477 82.5374 345.684 82.621 344.415 82.6489 343.285 82.6489 343.174 82.621ZM346.534 76.1647C349.1 75.4954 350.871 73.4316 351.485 70.4196 351.945 68.1467 351.568 63.8239 350.634 60.6445 349.797 57.758 348.696 55.75 346.994 54.0488 344.945 51.9711 342.783 51.0368 340.12 51.0368 336.536 51.0368 333.845 53.3516 333.064 57.1026 332.757 58.5529 332.757 61.3836 333.064 63.3079 334.068 69.6806 336.341 73.5571 340.231 75.5094 341.988 76.3879 344.61 76.6668 346.534 76.1647Z" fill="#FFFFFF" transform="matrix(1.00196 0 0 -1 0.0485797 216)"/><path d="M413.091 82.4816C408.796 81.8262 405.464 79.5393 403.637 76.0114 402.772 74.338 402.424 73.0551 402.34 71.1169 402.256 69.2483 402.438 68.2582 403.205 66.7243 404.501 64.0749 406.245 63.0151 412.394 61.0768 416.34 59.8358 416.814 59.6405 417.637 58.9015 418.362 58.2461 418.669 57.4094 418.571 56.3496 418.376 54.1185 416.563 52.0547 414.165 51.3157 412.157 50.6882 409.34 50.8416 407.946 51.6643 407.165 52.1105 406.245 53.1424 405.91 53.9373 405.561 54.7321 405.227 56.3915 405.227 57.2979L405.227 57.9533 402.061 57.6046C400.248 57.4234 398.84 57.2003 398.784 57.1166 398.505 56.6983 398.784 53.4213 399.244 51.734 399.928 49.2101 401.462 47.1881 403.525 46.1144 405.199 45.2359 406.844 44.8873 409.619 44.8036 412.436 44.7199 414.291 44.957 416.41 45.6542 421.514 47.3694 424.986 52.1524 425.265 57.8696 425.404 60.7979 424.679 62.8757 422.894 64.6187 421.416 66.0689 419.729 66.8498 415.057 68.2582 411.055 69.4435 409.535 70.2105 409.006 71.2842 408.531 72.2742 408.657 73.5432 409.326 74.4496 410.484 76.0114 413.412 76.9317 416.061 76.5831 418.655 76.2345 419.687 75.1747 420.05 72.5531L420.217 71.3539 422.587 71.4515C423.884 71.4934 425.348 71.577 425.823 71.6189L426.687 71.7025 426.785 72.344C426.91 73.2085 426.757 75.3281 426.492 76.346 425.767 79.107 423.731 81.1848 420.886 82.0633 418.99 82.6629 415.42 82.8442 413.091 82.4816Z" fill="#FFFFFF" transform="matrix(1.00196 0 0 -1 0.0485797 216)"/><path d="M583.855 82.4816C582.489 82.2585 580.69 81.7147 579.435 81.1569 576.019 79.609 572.672 76.1647 570.58 72.0372 568.503 67.9096 567.192 61.0768 567.666 56.7122 568.335 50.5487 571.417 46.6303 576.688 45.222 577.929 44.9012 578.319 44.8594 580.648 44.8455 583.437 44.8315 584.581 44.9988 586.644 45.6961 589.782 46.7698 592.836 49.0427 594.997 51.9292 597.535 55.3178 599.027 59.2501 599.85 64.6606 600.184 66.9753 600.156 70.6567 599.766 72.4974 599.139 75.4815 598.204 77.2524 596.266 79.2047 595.178 80.3063 594.718 80.6549 593.644 81.2127 591.664 82.2167 590.144 82.5653 587.341 82.635 585.794 82.6629 584.65 82.621 583.855 82.4816ZM588.596 76.0532C591.023 75.2305 592.71 72.9994 593.198 69.9316 593.728 66.6407 592.71 60.77 591.023 57.4234 588.973 53.3516 585.64 51.0368 581.847 51.0368 579.728 51.0368 578.236 51.6225 576.869 52.989 575.823 54.0209 575.196 55.1365 574.764 56.7401 574.387 58.1345 574.359 61.4533 574.708 63.5171 575.684 69.3041 577.622 72.8739 580.927 75.0074 581.694 75.5094 583.326 76.1508 584.274 76.3321 585.083 76.4855 587.844 76.3042 588.596 76.0532Z" fill="#FFFFFF" transform="matrix(1.00196 0 0 -1 0.0485797 216)"/><path d="M208.819 81.8262C208.721 81.4218 207.912 76.3181 207.912 76.1369 207.912 76.0532 209.697 75.9974 212.723 75.9974 216.39 75.9974 217.534 75.9556 217.534 75.8301 217.534 75.7325 216.432 68.9415 215.094 60.7143 213.755 52.501 212.653 45.6682 212.653 45.5427 212.653 45.3475 212.988 45.3196 215.861 45.3196L219.068 45.3196 219.138 45.6403C219.207 45.9192 224.088 75.8161 224.088 75.9416 224.088 75.9695 226.277 75.9974 228.954 75.9974L233.807 75.9974 234.253 78.8281C234.504 80.376 234.741 81.7565 234.783 81.8959 234.839 82.119 234.156 82.133 221.871 82.133L208.888 82.133 208.819 81.8262Z" fill="#FFFFFF" transform="matrix(1.00196 0 0 -1 0.0485797 216)"/><path d="M239.148 82.0354C239.148 81.8959 233.305 46.0168 233.221 45.6403L233.152 45.3196 245.562 45.3196 257.973 45.3196 258.043 45.6403C258.14 46.0307 258.949 51.1344 258.949 51.3157 258.949 51.3994 255.644 51.4551 249.801 51.4551L240.654 51.4551 240.738 51.8456C240.779 52.0547 241.128 54.1743 241.518 56.5449 241.909 58.9294 242.257 61.035 242.299 61.2581L242.383 61.6346 250.582 61.6346 258.782 61.6346 258.865 62.0251C258.907 62.2342 259.102 63.4056 259.298 64.6327 259.493 65.8598 259.688 67.0311 259.73 67.2542L259.814 67.6307 251.642 67.6307C247.166 67.6307 243.457 67.6726 243.429 67.7423 243.373 67.826 244.461 74.8261 244.656 75.6906L244.726 75.9974 253.552 75.9974 262.379 75.9974 262.826 78.8281C263.077 80.376 263.328 81.7565 263.355 81.8959 263.425 82.119 262.784 82.133 251.293 82.133 244.614 82.133 239.148 82.0912 239.148 82.0354Z" fill="#FFFFFF" transform="matrix(1.00196 0 0 -1 0.0485797 216)"/><path d="M297.017 77.5731C296.613 75.0492 295.26 66.7941 294.019 59.1943L291.76 45.3893 294.968 45.3475C296.739 45.3335 298.203 45.3335 298.231 45.3753 298.258 45.4032 298.691 47.8993 299.179 50.9113L300.071 56.4054 303.251 59.5011C304.994 61.2023 306.458 62.5968 306.5 62.5968 306.542 62.6107 307.95 58.7342 309.651 53.993L312.719 45.3893 316.93 45.3475C319.245 45.3335 321.141 45.3475 321.141 45.4032 321.141 45.4451 319.078 50.4651 316.54 56.5449 314.016 62.6386 311.938 67.6865 311.938 67.7562 311.938 67.826 315.201 71.0611 319.189 74.9516 323.177 78.8421 326.44 82.0493 326.44 82.0772 326.44 82.1051 324.474 82.133 322.09 82.119L317.725 82.119 309.721 73.9615C305.328 69.4714 301.703 65.8319 301.675 65.8458 301.647 65.8737 302.219 69.5272 302.944 73.9615 303.669 78.4098 304.269 82.0493 304.269 82.0772 304.269 82.1051 302.804 82.133 301.02 82.133L297.77 82.133 297.017 77.5731Z" fill="#FFFFFF" transform="matrix(1.00196 0 0 -1 0.0485797 216)"/><path d="M363.282 63.8936C361.65 53.8675 360.311 45.5845 360.325 45.5008 360.325 45.3614 361.023 45.3196 363.31 45.3196L366.294 45.3196 366.363 45.71C366.405 45.9192 367.451 52.3615 368.706 60.031 369.947 67.7005 371.007 74.0173 371.049 74.0731 371.104 74.1289 371.509 68.077 371.955 60.6167 372.401 53.1703 372.792 46.6722 372.834 46.1841L372.917 45.3196 376.041 45.3475 379.178 45.3893 382.093 52.9193C389.497 72.0093 390.362 74.2265 390.404 74.101 390.418 74.0312 389.386 67.5471 388.103 59.6824L385.76 45.3893 388.758 45.3475C390.404 45.3335 391.756 45.3335 391.784 45.3475 391.798 45.3753 393.137 53.5189 394.754 63.4474 396.372 73.3759 397.724 81.6449 397.766 81.8262L397.836 82.133 392.914 82.133 387.977 82.133 386.332 77.9915C380.461 63.1824 377.993 57.019 377.951 57.0608 377.909 57.1026 376.083 81.4915 376.083 81.9935 376.083 82.0912 374.465 82.133 371.174 82.133L366.252 82.133 363.282 63.8936Z" fill="#FFFFFF" transform="matrix(1.00196 0 0 -1 0.0485797 216)"/><path d="M434.998 81.9657C434.928 81.7286 429.072 45.724 429.072 45.5008 429.072 45.3614 431.637 45.3196 441.454 45.3196L453.837 45.3196 454.297 48.1503C454.548 49.6981 454.771 51.0786 454.813 51.2181 454.883 51.4412 454.381 51.4551 445.749 51.4551L436.602 51.4551 436.616 51.7759C436.616 51.9432 436.978 54.2161 437.41 56.8238L438.205 61.5649 446.433 61.6067 454.66 61.6346 455.12 64.5351C455.371 66.1247 455.58 67.4634 455.566 67.5331 455.566 67.5889 451.899 67.6307 447.409 67.6307 439.739 67.6307 439.251 67.6447 439.251 67.8817 439.251 68.0072 439.544 69.8897 439.893 72.0651L440.548 75.9974 449.375 75.9974 458.188 75.9974 458.271 76.3879C458.369 76.8201 459.192 81.9238 459.192 82.0493 459.192 82.0912 453.767 82.133 447.13 82.133 437.592 82.133 435.054 82.0912 434.998 81.9657Z" fill="#FFFFFF" transform="matrix(1.00196 0 0 -1 0.0485797 216)"/><path d="M493.286 81.8262C493.188 81.3939 487.36 45.6542 487.36 45.4729 487.36 45.3614 488.336 45.3196 490.595 45.3475L493.844 45.3893 496.8 63.4474C498.418 73.3759 499.756 81.6449 499.756 81.8262L499.77 82.133 496.563 82.133 493.356 82.133 493.286 81.8262Z" fill="#FFFFFF" transform="matrix(1.00196 0 0 -1 0.0485797 216)"/><path d="M506.254 81.8262C506.171 81.4497 500.328 45.5706 500.328 45.4172 500.328 45.3614 501.681 45.3196 503.326 45.3196 506.31 45.3196 506.324 45.3196 506.394 45.6403 506.436 45.8076 507.314 51.1902 508.36 57.5907 509.406 63.9912 510.27 69.2622 510.298 69.2901 510.368 69.3459 510.159 69.8758 515.193 56.8656L519.641 45.3196 522.918 45.3196 526.195 45.3196 529.193 63.6984 532.191 82.0633 529.207 82.1051C527.562 82.119 526.209 82.119 526.181 82.1051 526.167 82.0772 525.247 76.5552 524.145 69.82 523.044 63.0988 522.123 57.5907 522.081 57.5907 522.039 57.5907 519.906 63.0988 517.34 69.834L512.669 82.0633 509.503 82.1051 506.324 82.133 506.254 81.8262Z" fill="#FFFFFF" transform="matrix(1.00196 0 0 -1 0.0485797 216)"/><path d="M539.233 81.9796C539.233 81.7983 533.404 46.0447 533.307 45.6403L533.237 45.3196 539.54 45.3196C548.297 45.3335 550.124 45.5008 552.703 46.5606 557.696 48.6105 561.544 53.9791 563.134 61.1187 563.887 64.4932 564.208 67.8399 564.026 70.7403 563.692 76.5413 560.777 80.7107 556.427 81.6449 554.865 81.9935 551.644 82.119 545.271 82.133 541.074 82.133 539.233 82.0912 539.233 81.9796ZM552.773 75.6628C555.227 75.1329 556.58 73.6966 557.152 71.0332 557.891 67.561 556.51 59.4732 554.53 55.7221 553.443 53.6444 551.588 52.1802 549.482 51.7201 549.106 51.6364 546.972 51.5388 544.769 51.497L540.753 51.4272 540.837 51.748C540.879 51.9292 541.757 57.2979 542.789 63.6566 543.821 70.0292 544.713 75.4118 544.755 75.6349L544.839 76.0393 548.353 75.9556C550.5 75.8998 552.215 75.7743 552.773 75.6628Z" fill="#FFFFFF" transform="matrix(1.00196 0 0 -1 0.0485797 216)"/><path d="M269.812 81.617C269.812 81.5473 268.473 73.3759 266.856 63.4474L263.899 45.3893 275.32 45.3475C281.609 45.3335 286.768 45.3475 286.81 45.3893 286.88 45.4451 287.8 50.9252 287.814 51.2878 287.814 51.4133 286.085 51.4551 279.657 51.4551L271.499 51.4551 271.499 51.7619C271.499 52.0129 276.143 80.7664 276.296 81.4776 276.352 81.7007 276.129 81.7147 273.089 81.7147 271.29 81.7147 269.826 81.6728 269.812 81.617Z" fill="#FFFFFF" transform="matrix(1.00196 0 0 -1 0.0485797 216)"/><path d="M462.762 63.9076C461.172 54.1046 459.833 45.9192 459.791 45.71L459.722 45.3196 471.212 45.3196 482.702 45.3196 483.148 48.1503C483.399 49.6981 483.65 51.0786 483.678 51.2181 483.748 51.4412 483.288 51.4551 475.521 51.4551 470.989 51.4551 467.28 51.497 467.28 51.5527 467.28 51.6085 468.381 58.3716 469.72 66.5988 471.059 74.8121 472.16 81.5752 472.16 81.631 472.16 81.6728 470.696 81.7147 468.911 81.7147L465.662 81.7147 462.762 63.9076Z" fill="#FFFFFF" transform="matrix(1.00196 0 0 -1 0.0485797 216)"/></g></svg>